Fly_normalized_Motion_pl07
version=1
nRows=10
nColumns=43
inDegrees=yes
endheader
time		pelvis_tilt		pelvis_list		pelvis_rotation		pelvis_tx		pelvis_ty		pelvis_tz		hip_flexion_r		hip_adduction_r		hip_rotation_r		knee_angle_r		ankle_angle_r		subtalar_angle_r		mtp_angle_r		hip_flexion_l		hip_adduction_l		hip_rotation_l		knee_angle_l		ankle_angle_l		subtalar_angle_l		mtp_angle_l		lumbar_extension		lumbar_bending		lumbar_rotation		neck_flexion		neck_lateral_bending		neck_rotation		arm_flex_r		arm_add_r		arm_rot_r		elbow_flex_r		pro_sup_r		wrist_flex_r		wrist_dev_r		hand_finger_flex_r		arm_flex_l		arm_add_l		arm_rot_l		elbow_flex_l		pro_sup_l		wrist_flex_l		wrist_dev_l		hand_finger_flex_l		
2.562500		2.092504		-17.080168		92.634163		-0.014295		1.653525		1.345021		67.995893		-7.602924		5.277003		-126.274906		-12.645165		0.842316		30.555320		52.916676		-7.803490		7.573359		-128.391954		-3.128783		4.429111		25.389812		-32.037416		0.501610		-1.614255		8.716045		7.655759		1.448611		103.380078		-11.249875		30.619256		57.859868		89.227603		-4.239522		-15.076048		-25.178324		100.995500		-10.331338		21.538081		57.927503		111.305814		-17.819006		-9.162909		-17.831032		
2.566465		2.018315		-16.844499		92.376753		-0.013922		1.653843		1.337163		67.838516		-7.485039		4.833217		-125.520508		-11.393562		-0.112064		29.586750		52.569893		-7.918218		7.502864		-127.704141		-6.003078		3.978685		25.475342		-31.818171		0.290841		-1.357729		7.984885		7.752372		1.423553		102.285632		-11.871167		30.889101		58.156861		89.958899		-3.776874		-14.632593		-25.303796		99.554582		-10.860561		21.484017		58.287775		111.832978		-17.460252		-9.241643		-17.688846		
2.570429		1.946042		-16.638420		92.095550		-0.013428		1.654019		1.329477		67.733912		-7.309192		4.345442		-124.770318		-10.003745		-1.329561		28.109380		52.345926		-8.076800		7.437375		-126.944817		-9.100753		3.666159		25.700828		-31.593474		0.075532		-1.067626		7.328958		7.797475		1.439007		101.167893		-12.387408		30.966361		58.357234		90.981217		-3.248596		-14.103984		-25.594518		98.144833		-11.321141		21.305963		58.523523		112.485715		-17.072672		-9.268404		-17.536741		
2.574394		1.928755		-16.459177		91.855923		-0.012901		1.654057		1.321704		67.662075		-7.104846		3.770090		-123.979404		-8.922522		-2.689695		26.038976		52.197172		-8.257029		7.406844		-126.157848		-11.669259		3.369087		26.150440		-31.356044		-0.073363		-0.800820		6.751222		7.851241		1.447219		99.944556		-12.905267		30.922516		58.669884		92.369237		-2.560019		-13.647277		-26.078544		96.637964		-11.913057		21.124827		58.891330		113.305405		-16.669897		-9.394381		-17.379779		
2.578359		1.969835		-16.294201		91.635883		-0.012269		1.654034		1.313950		67.634509		-6.861460		3.094846		-123.141685		-8.222500		-4.203365		23.623156		52.090068		-8.491473		7.392721		-125.341777		-13.484405		3.161239		26.811209		-31.135590		-0.161190		-0.536481		6.205612		7.875557		1.529821		98.686411		-13.347411		30.726006		58.917023		93.953211		-1.766380		-13.389300		-26.754098		95.095165		-12.631933		20.941903		59.340912		114.297554		-16.230500		-9.569468		-17.280993		
2.582323		1.830956		-16.024509		91.421556		-0.011956		1.654144		1.306229		67.511668		-6.777945		2.713131		-122.291948		-7.308074		-4.906017		23.251138		51.826973		-8.495952		7.245411		-124.451227		-14.355090		3.495156		26.888391		-31.074943		-0.362728		-0.404697		5.717748		7.919476		1.498828		97.538270		-13.871992		30.890291		59.046835		94.231575		-1.538091		-13.455299		-26.845315		93.607175		-13.389784		20.960205		59.725711		114.545690		-16.250233		-9.817699		-17.312571		
2.586288		1.874959		-15.811182		91.164372		-0.011267		1.653967		1.298590		67.507483		-6.504396		2.025092		-121.400956		-7.114624		-6.584531		21.352361		51.685373		-8.750117		7.127177		-123.661323		-14.383524		3.394407		27.563795		-30.928725		-0.438577		-0.197786		5.233423		7.912775		1.768927		96.243092		-13.996815		30.357284		58.879051		95.852146		-0.858861		-13.600214		-27.279141		91.978677		-14.194295		20.553919		60.124076		115.959128		-15.804129		-9.946533		-17.370159		
2.590253		1.798027		-15.539798		91.006751		-0.010970		1.653823		1.290905		67.401667		-6.430473		1.570329		-120.496545		-6.516901		-7.256034		20.834267		51.423742		-8.776433		6.900883		-122.858252		-13.256919		3.159760		27.838574		-30.877544		-0.567598		-0.136294		4.830900		8.029956		1.831135		94.908529		-14.252062		30.003588		58.837451		96.257578		-0.718629		-13.739277		-27.398243		90.361317		-14.943888		20.315670		60.433390		116.494781		-15.867929		-10.134921		-17.523138		
2.594217		1.751636		-15.285039		90.875113		-0.010668		1.653634		1.283351		67.377132		-6.386515		1.059688		-119.554086		-6.485744		-7.960022		20.140454		51.196584		-8.816329		6.649960		-122.028460		-11.616887		2.729718		28.178729		-30.859696		-0.660185		-0.090712		4.463189		8.132163		1.977227		93.540620		-14.462707		29.430163		58.802666		97.078566		-0.473215		-13.869358		-27.405486		88.730008		-15.791062		20.019741		60.810111		117.479097		-15.833857		-10.293675		-17.703726		
2.598182		1.713680		-15.042596		90.819826		-0.010471		1.653312		1.275879		67.361440		-6.406515		0.564368		-118.582697		-6.549262		-8.375934		19.572011		51.050533		-8.823303		6.414623		-121.195757		-9.935789		2.077283		28.449380		-30.858824		-0.709762		-0.084833		4.183124		8.236365		2.068232		92.125429		-14.699195		28.746658		58.864684		97.929601		-0.280513		-13.843404		-27.333313		87.087518		-16.639732		19.728410		61.149466		118.472161		-15.847604		-10.374636		-17.919360		
